        <svg
              width="240"
              height="150"
              viewBox="0 0 240 150"
              fill="none"
              
              xmlns="http://www.w3.org/2000/svg"
            >
              <path
                d="M77.0899 0H44.6323V44H48.6895V3.66667H73.0327V14.6667H85.2043V44H89.2615V9.32422L78.9452 0H77.0899ZM85.2043 11H77.0899V3.66667H77.2633L85.2043 10.8424V11Z"
                fill="#A4A6B3"
              />
              <path
                d="M68.9752 34.8333V25.5091L73.0324 29.1757L75.9019 26.5833L66.9466 18.4908L57.9912 26.5833L60.8608 29.1757L64.918 25.5091V34.8333H68.9752Z"
                fill="#A4A6B3"
              />
              <path
                d="M54.7749 44H79.1181V34.8334H75.0609V40.3334H58.8321V34.8334H54.7749V44Z"
                fill="#A4A6B3"
              />
              <path
                d="M8.28757 67V57.0469H11.227C12.1066 57.0469 12.8859 57.2428 13.5649 57.6348C14.2485 58.0267 14.7772 58.5827 15.1509 59.3027C15.5246 60.0228 15.7114 60.8477 15.7114 61.7773V62.2764C15.7114 63.2197 15.5223 64.0492 15.144 64.7646C14.7703 65.4801 14.2348 66.0316 13.5376 66.4189C12.8449 66.8063 12.0496 67 11.1518 67H8.28757ZM10.0171 58.4414V65.6191H11.145C12.0519 65.6191 12.7469 65.3366 13.23 64.7715C13.7176 64.2018 13.966 63.3861 13.9751 62.3242V61.7705C13.9751 60.6904 13.7404 59.8656 13.271 59.2959C12.8016 58.7262 12.1203 58.4414 11.227 58.4414H10.0171ZM21.5126 61.1211C21.2939 61.0846 21.0683 61.0664 20.8359 61.0664C20.0748 61.0664 19.5621 61.3581 19.2978 61.9414V67H17.6367V59.6035H19.2226L19.2636 60.4307C19.6647 59.7881 20.2206 59.4668 20.9316 59.4668C21.1686 59.4668 21.3645 59.4987 21.5195 59.5625L21.5126 61.1211ZM27.143 67C27.0701 66.8587 27.0063 66.6286 26.9516 66.3096C26.4229 66.861 25.7758 67.1367 25.0102 67.1367C24.2673 67.1367 23.6612 66.9248 23.1918 66.501C22.7224 66.0771 22.4877 65.5531 22.4877 64.9287C22.4877 64.1403 22.7794 63.5365 23.3627 63.1172C23.9506 62.6934 24.7891 62.4814 25.8783 62.4814H26.8969V61.9961C26.8969 61.6133 26.7898 61.3079 26.5756 61.0801C26.3614 60.8477 26.0356 60.7314 25.5981 60.7314C25.2198 60.7314 24.9099 60.8271 24.6684 61.0186C24.4268 61.2054 24.3061 61.4447 24.3061 61.7363H22.6449C22.6449 61.3307 22.7794 60.9525 23.0482 60.6016C23.3171 60.2461 23.6817 59.9681 24.142 59.7676C24.6068 59.5671 25.1241 59.4668 25.6938 59.4668C26.5596 59.4668 27.2501 59.6855 27.765 60.123C28.28 60.556 28.5443 61.1667 28.558 61.9551V65.291C28.558 65.9564 28.6514 66.4873 28.8383 66.8838V67H27.143ZM25.3178 65.8037C25.6459 65.8037 25.9535 65.724 26.2406 65.5645C26.5323 65.4049 26.751 65.1908 26.8969 64.9219V63.5273H26.0014C25.3861 63.5273 24.9236 63.6344 24.6137 63.8486C24.3038 64.0628 24.1488 64.3659 24.1488 64.7578C24.1488 65.0768 24.2537 65.332 24.4633 65.5234C24.6775 65.7103 24.9623 65.8037 25.3178 65.8037ZM30.3739 63.2471C30.3739 62.0986 30.6428 61.1826 31.1805 60.499C31.7229 59.8109 32.4406 59.4668 33.3339 59.4668C34.177 59.4668 34.84 59.7607 35.3231 60.3486L35.3983 59.6035H36.8954V66.7744C36.8954 67.7451 36.5923 68.5107 35.9862 69.0713C35.3846 69.6318 34.5712 69.9121 33.5458 69.9121C33.0035 69.9121 32.4725 69.7982 31.953 69.5703C31.438 69.347 31.0461 69.0531 30.7772 68.6885L31.5634 67.6904C32.0738 68.2965 32.7027 68.5996 33.4501 68.5996C34.0015 68.5996 34.4367 68.4492 34.7557 68.1484C35.0747 67.8522 35.2343 67.4147 35.2343 66.8359V66.3369C34.7557 66.8701 34.1177 67.1367 33.3202 67.1367C32.4543 67.1367 31.7456 66.7926 31.1942 66.1045C30.6473 65.4163 30.3739 64.4639 30.3739 63.2471ZM32.0282 63.3906C32.0282 64.1335 32.1786 64.7191 32.4794 65.1475C32.7847 65.5713 33.2063 65.7832 33.744 65.7832C34.4139 65.7832 34.9107 65.4961 35.2343 64.9219V61.668C34.9198 61.1074 34.4276 60.8271 33.7577 60.8271C33.2108 60.8271 32.7847 61.0436 32.4794 61.4766C32.1786 61.9095 32.0282 62.5475 32.0282 63.3906ZM43.2684 67V60.834H42.1404V59.6035H43.2684V59.0977C43.2729 58.5189 43.396 58.0221 43.6375 57.6074C43.879 57.1927 44.2208 56.8805 44.6629 56.6709C45.105 56.4613 45.6359 56.3564 46.2557 56.3564C46.6203 56.3564 46.9689 56.3952 47.3016 56.4727C47.6388 56.5501 47.9874 56.6481 48.3475 56.7666L48.0945 58.1406C47.4656 57.9219 46.8914 57.8125 46.3719 57.8125C45.866 57.8125 45.4992 57.9242 45.2713 58.1475C45.0434 58.3662 44.9295 58.6966 44.9295 59.1387V59.6035H46.3856V60.834H44.9295V67H43.2684ZM49.1336 67H47.4725V59.6035H49.1336V67ZM53.1096 67H51.4485V56.5H53.1096V67ZM58.5486 67.1367C57.4958 67.1367 56.6413 66.8063 55.9851 66.1455C55.3334 65.4801 55.0076 64.596 55.0076 63.4932V63.2881C55.0076 62.5498 55.1488 61.8913 55.4314 61.3125C55.7185 60.7292 56.1195 60.2757 56.6345 59.9521C57.1495 59.6286 57.7237 59.4668 58.3572 59.4668C59.3643 59.4668 60.1413 59.7881 60.6882 60.4307C61.2397 61.0732 61.5154 61.9824 61.5154 63.1582V63.8281H56.6824C56.7325 64.4388 56.9353 64.9219 57.2908 65.2773C57.6508 65.6328 58.102 65.8105 58.6443 65.8105C59.4053 65.8105 60.0251 65.5029 60.5037 64.8877L61.3992 65.7422C61.1029 66.1842 60.7065 66.5283 60.2097 66.7744C59.7175 67.016 59.1638 67.1367 58.5486 67.1367ZM58.3503 60.7998C57.8946 60.7998 57.5255 60.9593 57.2429 61.2783C56.9649 61.5973 56.7872 62.0417 56.7097 62.6113H59.8747V62.4883C59.8383 61.9323 59.6902 61.513 59.4304 61.2305C59.1706 60.9434 58.8106 60.7998 58.3503 60.7998ZM69.112 57.8057V59.6035H70.4176V60.834H69.112V64.9629C69.112 65.2454 69.1667 65.4505 69.276 65.5781C69.39 65.7012 69.5905 65.7627 69.8776 65.7627C70.069 65.7627 70.2627 65.7399 70.4587 65.6943V66.9795C70.0804 67.0843 69.7158 67.1367 69.3649 67.1367C68.0889 67.1367 67.4509 66.4326 67.4509 65.0244V60.834H66.2341V59.6035H67.4509V57.8057H69.112ZM71.5431 63.2334C71.5431 62.5088 71.6867 61.8571 71.9738 61.2783C72.2609 60.695 72.6642 60.2484 73.1837 59.9385C73.7033 59.624 74.3003 59.4668 74.9747 59.4668C75.9728 59.4668 76.7817 59.7881 77.4015 60.4307C78.0259 61.0732 78.3631 61.9255 78.4132 62.9873L78.4201 63.377C78.4201 64.1061 78.2788 64.7578 77.9962 65.332C77.7182 65.9062 77.3172 66.3506 76.7931 66.665C76.2736 66.9795 75.672 67.1367 74.9884 67.1367C73.9448 67.1367 73.1085 66.7904 72.4796 66.0977C71.8553 65.4004 71.5431 64.473 71.5431 63.3154V63.2334ZM73.2042 63.377C73.2042 64.138 73.3615 64.735 73.6759 65.168C73.9904 65.5964 74.4279 65.8105 74.9884 65.8105C75.549 65.8105 75.9842 65.5918 76.2941 65.1543C76.6085 64.7168 76.7658 64.0765 76.7658 63.2334C76.7658 62.486 76.604 61.8936 76.2804 61.4561C75.9614 61.0186 75.5262 60.7998 74.9747 60.7998C74.4324 60.7998 74.0018 61.0163 73.6828 61.4492C73.3637 61.8776 73.2042 62.5202 73.2042 63.377ZM88.5255 66.2754C88.0378 66.8496 87.3451 67.1367 86.4473 67.1367C85.6453 67.1367 85.0369 66.902 84.6221 66.4326C84.212 65.9632 84.0069 65.2842 84.0069 64.3955V59.6035H85.668V64.375C85.668 65.3138 86.0577 65.7832 86.837 65.7832C87.6436 65.7832 88.1882 65.4938 88.4708 64.915V59.6035H90.1319V67H88.5665L88.5255 66.2754ZM98.6675 63.377C98.6675 64.5208 98.4078 65.4346 97.8882 66.1182C97.3687 66.7972 96.6714 67.1367 95.7964 67.1367C94.9852 67.1367 94.3358 66.8701 93.8482 66.3369V69.8438H92.1871V59.6035H93.7183L93.7867 60.3555C94.2743 59.763 94.9374 59.4668 95.7759 59.4668C96.6783 59.4668 97.3846 59.804 97.8951 60.4785C98.41 61.1484 98.6675 62.0804 98.6675 63.2744V63.377ZM97.0132 63.2334C97.0132 62.4951 96.8651 61.9095 96.5689 61.4766C96.2772 61.0436 95.858 60.8271 95.3111 60.8271C94.632 60.8271 94.1444 61.1074 93.8482 61.668V64.9492C94.149 65.5234 94.6412 65.8105 95.3248 65.8105C95.8534 65.8105 96.2658 65.5986 96.5621 65.1748C96.8628 64.7464 97.0132 64.0993 97.0132 63.2334ZM102.213 67H100.552V56.5H102.213V67ZM104.083 63.2334C104.083 62.5088 104.227 61.8571 104.514 61.2783C104.801 60.695 105.205 60.2484 105.724 59.9385C106.244 59.624 106.841 59.4668 107.515 59.4668C108.513 59.4668 109.322 59.7881 109.942 60.4307C110.566 61.0732 110.903 61.9255 110.954 62.9873L110.96 63.377C110.96 64.1061 110.819 64.7578 110.537 65.332C110.259 65.9062 109.858 66.3506 109.333 66.665C108.814 66.9795 108.212 67.1367 107.529 67.1367C106.485 67.1367 105.649 66.7904 105.02 66.0977C104.396 65.4004 104.083 64.473 104.083 63.3154V63.2334ZM105.745 63.377C105.745 64.138 105.902 64.735 106.216 65.168C106.531 65.5964 106.968 65.8105 107.529 65.8105C108.089 65.8105 108.525 65.5918 108.834 65.1543C109.149 64.7168 109.306 64.0765 109.306 63.2334C109.306 62.486 109.144 61.8936 108.821 61.4561C108.502 61.0186 108.067 60.7998 107.515 60.7998C106.973 60.7998 106.542 61.0163 106.223 61.4492C105.904 61.8776 105.745 62.5202 105.745 63.377ZM117.151 67C117.078 66.8587 117.015 66.6286 116.96 66.3096C116.431 66.861 115.784 67.1367 115.018 67.1367C114.276 67.1367 113.67 66.9248 113.2 66.501C112.731 66.0771 112.496 65.5531 112.496 64.9287C112.496 64.1403 112.788 63.5365 113.371 63.1172C113.959 62.6934 114.797 62.4814 115.887 62.4814H116.905V61.9961C116.905 61.6133 116.798 61.3079 116.584 61.0801C116.37 60.8477 116.044 60.7314 115.606 60.7314C115.228 60.7314 114.918 60.8271 114.677 61.0186C114.435 61.2054 114.314 61.4447 114.314 61.7363H112.653C112.653 61.3307 112.788 60.9525 113.057 60.6016C113.325 60.2461 113.69 59.9681 114.15 59.7676C114.615 59.5671 115.132 59.4668 115.702 59.4668C116.568 59.4668 117.258 59.6855 117.773 60.123C118.288 60.556 118.553 61.1667 118.566 61.9551V65.291C118.566 65.9564 118.66 66.4873 118.847 66.8838V67H117.151ZM115.326 65.8037C115.654 65.8037 115.962 65.724 116.249 65.5645C116.541 65.4049 116.759 65.1908 116.905 64.9219V63.5273H116.01C115.394 63.5273 114.932 63.6344 114.622 63.8486C114.312 64.0628 114.157 64.3659 114.157 64.7578C114.157 65.0768 114.262 65.332 114.472 65.5234C114.686 65.7103 114.971 65.8037 115.326 65.8037ZM120.362 63.2471C120.362 62.1077 120.626 61.194 121.155 60.5059C121.683 59.8132 122.392 59.4668 123.281 59.4668C124.065 59.4668 124.698 59.7402 125.181 60.2871V56.5H126.842V67H125.338L125.256 66.2344C124.76 66.8359 124.096 67.1367 123.267 67.1367C122.401 67.1367 121.699 66.7881 121.162 66.0908C120.628 65.3936 120.362 64.4456 120.362 63.2471ZM122.023 63.3906C122.023 64.1426 122.166 64.7305 122.454 65.1543C122.745 65.5736 123.158 65.7832 123.691 65.7832C124.37 65.7832 124.867 65.4801 125.181 64.874V61.7158C124.876 61.1234 124.384 60.8271 123.704 60.8271C123.167 60.8271 122.752 61.0413 122.46 61.4697C122.169 61.8936 122.023 62.5339 122.023 63.3906Z"
                fill="#A4A6B3"
              />
            </svg>